<svg width="1440" height="1024" viewBox="0 0 1440 1024" fill="none" xmlns="http://www.w3.org/2000/svg">
<g clip-path="url(#clip0)">
<rect width="1440" height="1024" fill="#F7F7D4"/>
<path d="M-151 165H1245V759H-151V165Z" fill="#FEFE33"/>
<path d="M21.8774 831.916L22.833 840.113L24.2915 832.871L36.0098 781.773H43.7046L55.0708 832.871L56.5293 840.314L57.5854 831.865L66.5376 781.773H75.7412L61.1562 855H52.8579L40.6367 801.639L39.8823 797.314L39.1279 801.639L26.4541 855H18.1055L3.5708 781.773H12.7744L21.8774 831.916ZM93.9976 806.166C97.384 801.773 101.709 799.577 106.973 799.577C116.596 799.577 121.474 805.998 121.608 818.839V855H112.757V819.242C112.757 814.984 112.036 811.966 110.594 810.189C109.186 808.378 107.057 807.473 104.207 807.473C101.994 807.473 99.9992 808.211 98.2222 809.686C96.4787 811.161 95.0705 813.089 93.9976 815.47V855H85.0957V777.75H93.9976V806.166ZM154.349 856.006C147.576 856.006 142.379 853.994 138.758 849.971C135.137 845.914 133.293 839.979 133.226 832.167V825.579C133.226 817.465 134.986 811.111 138.507 806.518C142.061 801.891 147.006 799.577 153.343 799.577C159.714 799.577 164.475 801.606 167.626 805.663C170.778 809.72 172.388 816.04 172.455 824.623V830.457H142.078V831.714C142.078 837.548 143.167 841.79 145.347 844.438C147.56 847.087 150.728 848.412 154.852 848.412C157.467 848.412 159.764 847.925 161.742 846.953C163.754 845.947 165.632 844.371 167.375 842.226L172.002 847.858C168.146 853.29 162.262 856.006 154.349 856.006ZM153.343 807.222C149.655 807.222 146.923 808.496 145.146 811.044C143.368 813.559 142.363 817.481 142.128 822.812H163.553V821.605C163.318 816.442 162.379 812.754 160.736 810.541C159.127 808.328 156.663 807.222 153.343 807.222ZM191.566 800.583L191.817 806.467C195.271 801.874 199.68 799.577 205.044 799.577C214.667 799.577 219.546 805.998 219.68 818.839V855H210.828V819.242C210.828 814.984 210.107 811.966 208.666 810.189C207.257 808.378 205.128 807.473 202.278 807.473C200.065 807.473 198.07 808.211 196.293 809.686C194.55 811.161 193.142 813.089 192.069 815.47V855H183.167V800.583H191.566ZM268.363 787.406V800.583H276.561V807.775H268.363V841.521C268.363 843.667 268.715 845.293 269.419 846.4C270.124 847.506 271.331 848.06 273.041 848.06C274.214 848.06 275.404 847.858 276.611 847.456L276.511 855C274.499 855.671 272.437 856.006 270.325 856.006C266.804 856.006 264.122 854.749 262.278 852.234C260.434 849.719 259.512 846.165 259.512 841.572V807.775H251.213V800.583H259.512V787.406H268.363ZM284.306 825.277C284.306 817.364 286.217 811.111 290.04 806.518C293.895 801.891 298.975 799.577 305.278 799.577C311.582 799.577 316.645 801.824 320.467 806.316C324.323 810.809 326.301 816.928 326.401 824.673V830.407C326.401 838.286 324.49 844.522 320.668 849.116C316.846 853.709 311.749 856.006 305.379 856.006C299.076 856.006 294.013 853.776 290.19 849.317C286.402 844.858 284.44 838.822 284.306 831.211V825.277ZM293.208 830.407C293.208 836.006 294.298 840.415 296.477 843.634C298.69 846.819 301.657 848.412 305.379 848.412C313.225 848.412 317.265 842.745 317.5 831.413V825.277C317.5 819.711 316.393 815.319 314.18 812.1C311.967 808.848 309 807.222 305.278 807.222C301.624 807.222 298.69 808.848 296.477 812.1C294.298 815.319 293.208 819.694 293.208 825.227V830.407ZM389.268 850.222C386.317 854.078 382.009 856.006 376.342 856.006C371.414 856.006 367.692 854.313 365.177 850.926C362.663 847.506 361.389 842.544 361.355 836.04V800.583H370.207V835.386C370.207 843.868 372.755 848.11 377.851 848.11C383.249 848.11 386.971 845.696 389.016 840.868V800.583H397.918V855H389.469L389.268 850.222ZM437.75 841.069C437.75 839.158 437.029 837.515 435.587 836.14C434.146 834.765 431.363 833.156 427.239 831.312C422.444 829.334 419.058 827.641 417.08 826.232C415.135 824.824 413.676 823.232 412.704 821.455C411.732 819.644 411.246 817.498 411.246 815.017C411.246 810.591 412.855 806.92 416.074 804.003C419.326 801.052 423.467 799.577 428.496 799.577C433.794 799.577 438.052 801.119 441.271 804.204C444.489 807.289 446.099 811.245 446.099 816.073H437.247C437.247 813.626 436.426 811.547 434.783 809.837C433.14 808.093 431.044 807.222 428.496 807.222C425.881 807.222 423.819 807.909 422.31 809.284C420.835 810.625 420.097 812.435 420.097 814.715C420.097 816.526 420.634 817.984 421.707 819.091C422.813 820.197 425.445 821.656 429.603 823.466C436.208 826.048 440.701 828.579 443.081 831.061C445.462 833.508 446.652 836.626 446.652 840.415C446.652 845.143 445.026 848.931 441.773 851.781C438.521 854.598 434.162 856.006 428.697 856.006C423.031 856.006 418.438 854.38 414.917 851.127C411.396 847.875 409.636 843.751 409.636 838.755H418.588C418.689 841.773 419.611 844.137 421.354 845.847C423.098 847.557 425.546 848.412 428.697 848.412C431.648 848.412 433.894 847.758 435.437 846.45C436.979 845.109 437.75 843.315 437.75 841.069ZM477.733 856.006C470.96 856.006 465.763 853.994 462.142 849.971C458.521 845.914 456.677 839.979 456.61 832.167V825.579C456.61 817.465 458.37 811.111 461.891 806.518C465.445 801.891 470.39 799.577 476.727 799.577C483.097 799.577 487.859 801.606 491.01 805.663C494.162 809.72 495.771 816.04 495.838 824.623V830.457H465.461V831.714C465.461 837.548 466.551 841.79 468.73 844.438C470.943 847.087 474.112 848.412 478.236 848.412C480.851 848.412 483.148 847.925 485.126 846.953C487.138 845.947 489.015 844.371 490.759 842.226L495.386 847.858C491.53 853.29 485.646 856.006 477.733 856.006ZM476.727 807.222C473.039 807.222 470.306 808.496 468.529 811.044C466.752 813.559 465.746 817.481 465.512 822.812H486.937V821.605C486.702 816.442 485.763 812.754 484.12 810.541C482.511 808.328 480.046 807.222 476.727 807.222ZM558.202 855C557.665 853.826 557.28 851.848 557.045 849.065C553.893 853.692 549.87 856.006 544.975 856.006C540.046 856.006 536.19 854.631 533.407 851.882C530.658 849.099 529.283 845.193 529.283 840.164C529.283 834.631 531.161 830.239 534.916 826.987C538.671 823.735 543.818 822.075 550.356 822.008H556.894V816.224C556.894 812.972 556.173 810.658 554.731 809.284C553.29 807.909 551.094 807.222 548.143 807.222C545.461 807.222 543.281 808.026 541.605 809.636C539.929 811.212 539.09 813.223 539.09 815.671H530.188C530.188 812.888 531.01 810.239 532.653 807.725C534.296 805.176 536.509 803.181 539.292 801.74C542.074 800.298 545.176 799.577 548.596 799.577C554.161 799.577 558.386 800.969 561.27 803.751C564.187 806.501 565.679 810.524 565.746 815.822V843.282C565.779 847.473 566.349 851.111 567.456 854.195V855H558.202ZM546.333 847.909C548.512 847.909 550.591 847.305 552.569 846.098C554.547 844.891 555.989 843.382 556.894 841.572V828.596H551.865C547.64 828.663 544.304 829.619 541.856 831.463C539.409 833.273 538.185 835.822 538.185 839.107C538.185 842.192 538.805 844.438 540.046 845.847C541.286 847.221 543.382 847.909 546.333 847.909ZM587.975 800.583L588.227 806.467C591.68 801.874 596.089 799.577 601.454 799.577C611.076 799.577 615.955 805.998 616.089 818.839V855H607.237V819.242C607.237 814.984 606.516 811.966 605.075 810.189C603.667 808.378 601.537 807.473 598.688 807.473C596.475 807.473 594.48 808.211 592.703 809.686C590.959 811.161 589.551 813.089 588.478 815.47V855H579.576V800.583H587.975ZM627.606 825.327C627.606 816.945 629.165 810.558 632.283 806.166C635.435 801.773 639.944 799.577 645.812 799.577C651.009 799.577 655.066 801.689 657.983 805.914V777.75H666.885V855H658.737L658.285 849.166C655.368 853.726 651.193 856.006 645.762 856.006C640.129 856.006 635.703 853.826 632.484 849.468C629.299 845.076 627.673 838.889 627.606 830.91V825.327ZM636.508 830.407C636.508 836.509 637.413 841.002 639.224 843.885C641.034 846.735 643.985 848.16 648.075 848.16C652.501 848.16 655.804 845.931 657.983 841.471V814.011C655.703 809.653 652.417 807.473 648.125 807.473C644.035 807.473 641.084 808.915 639.274 811.798C637.463 814.648 636.541 819.041 636.508 824.975V830.407ZM744.789 839.359L753.037 800.583H761.838L748.51 855H741.419L730.807 816.073L720.447 855H713.305L700.078 800.583H708.829L717.278 838.403L727.387 800.583H734.428L744.789 839.359ZM780.094 806.166C783.481 801.773 787.806 799.577 793.07 799.577C802.693 799.577 807.571 805.998 807.705 818.839V855H798.854V819.242C798.854 814.984 798.133 811.966 796.691 810.189C795.283 808.378 793.154 807.473 790.304 807.473C788.091 807.473 786.096 808.211 784.319 809.686C782.575 811.161 781.167 813.089 780.094 815.47V855H771.192V777.75H780.094V806.166ZM840.446 856.006C833.673 856.006 828.476 853.994 824.855 849.971C821.234 845.914 819.39 839.979 819.323 832.167V825.579C819.323 817.465 821.083 811.111 824.604 806.518C828.158 801.891 833.103 799.577 839.44 799.577C845.81 799.577 850.571 801.606 853.723 805.663C856.875 809.72 858.484 816.04 858.551 824.623V830.457H828.174V831.714C828.174 837.548 829.264 841.79 831.443 844.438C833.656 847.087 836.825 848.412 840.949 848.412C843.564 848.412 845.861 847.925 847.839 846.953C849.851 845.947 851.728 844.371 853.472 842.226L858.099 847.858C854.243 853.29 848.359 856.006 840.446 856.006ZM839.44 807.222C835.752 807.222 833.019 808.496 831.242 811.044C829.465 813.559 828.459 817.481 828.225 822.812H849.649V821.605C849.415 816.442 848.476 812.754 846.833 810.541C845.224 808.328 842.759 807.222 839.44 807.222ZM877.663 800.583L877.914 806.467C881.368 801.874 885.777 799.577 891.141 799.577C900.764 799.577 905.642 805.998 905.776 818.839V855H896.925V819.242C896.925 814.984 896.204 811.966 894.762 810.189C893.354 808.378 891.225 807.473 888.375 807.473C886.162 807.473 884.167 808.211 882.39 809.686C880.647 811.161 879.238 813.089 878.166 815.47V855H869.264V800.583H877.663ZM951.191 800.583L951.442 806.467C954.896 801.874 959.305 799.577 964.669 799.577C974.292 799.577 979.171 805.998 979.305 818.839V855H970.453V819.242C970.453 814.984 969.732 811.966 968.291 810.189C966.882 808.378 964.753 807.473 961.903 807.473C959.69 807.473 957.695 808.211 955.918 809.686C954.175 811.161 952.767 813.089 951.694 815.47V855H942.792V800.583H951.191ZM990.822 825.277C990.822 817.364 992.733 811.111 996.555 806.518C1000.41 801.891 1005.49 799.577 1011.79 799.577C1018.1 799.577 1023.16 801.824 1026.98 806.316C1030.84 810.809 1032.82 816.928 1032.92 824.673V830.407C1032.92 838.286 1031.01 844.522 1027.18 849.116C1023.36 853.709 1018.26 856.006 1011.89 856.006C1005.59 856.006 1000.53 853.776 996.706 849.317C992.917 844.858 990.956 838.822 990.822 831.211V825.277ZM999.724 830.407C999.724 836.006 1000.81 840.415 1002.99 843.634C1005.21 846.819 1008.17 848.412 1011.89 848.412C1019.74 848.412 1023.78 842.745 1024.02 831.413V825.277C1024.02 819.711 1022.91 815.319 1020.7 812.1C1018.48 808.848 1015.52 807.222 1011.79 807.222C1008.14 807.222 1005.21 808.848 1002.99 812.1C1000.81 815.319 999.724 819.694 999.724 825.227V830.407ZM1056.05 787.406V800.583H1064.25V807.775H1056.05V841.521C1056.05 843.667 1056.4 845.293 1057.11 846.4C1057.81 847.506 1059.02 848.06 1060.73 848.06C1061.9 848.06 1063.09 847.858 1064.3 847.456L1064.2 855C1062.19 855.671 1060.13 856.006 1058.01 856.006C1054.49 856.006 1051.81 854.749 1049.97 852.234C1048.12 849.719 1047.2 846.165 1047.2 841.572V807.775H1038.9V800.583H1047.2V787.406H1056.05ZM1110.17 787.406V800.583H1118.36V807.775H1110.17V841.521C1110.17 843.667 1110.52 845.293 1111.22 846.4C1111.93 847.506 1113.13 848.06 1114.84 848.06C1116.02 848.06 1117.21 847.858 1118.42 847.456L1118.31 855C1116.3 855.671 1114.24 856.006 1112.13 856.006C1108.61 856.006 1105.93 854.749 1104.08 852.234C1102.24 849.719 1101.32 846.165 1101.32 841.572V807.775H1093.02V800.583H1101.32V787.406H1110.17ZM1126.11 825.277C1126.11 817.364 1128.02 811.111 1131.84 806.518C1135.7 801.891 1140.78 799.577 1147.08 799.577C1153.39 799.577 1158.45 801.824 1162.27 806.316C1166.13 810.809 1168.1 816.928 1168.21 824.673V830.407C1168.21 838.286 1166.29 844.522 1162.47 849.116C1158.65 853.709 1153.55 856.006 1147.18 856.006C1140.88 856.006 1135.82 853.776 1131.99 849.317C1128.21 844.858 1126.24 838.822 1126.11 831.211V825.277ZM1135.01 830.407C1135.01 836.006 1136.1 840.415 1138.28 843.634C1140.49 846.819 1143.46 848.412 1147.18 848.412C1155.03 848.412 1159.07 842.745 1159.3 831.413V825.277C1159.3 819.711 1158.2 815.319 1155.98 812.1C1153.77 808.848 1150.8 807.222 1147.08 807.222C1143.43 807.222 1140.49 808.848 1138.28 812.1C1136.1 815.319 1135.01 819.694 1135.01 825.227V830.407Z" fill="#66B032"/>
<path d="M38.1782 355.773H47.8848V407.625C47.8848 414.633 45.7725 420.115 41.5479 424.071C37.3568 428.028 31.7575 430.006 24.75 430.006C17.4743 430.006 11.8079 428.145 7.75098 424.423C3.69401 420.702 1.66553 415.488 1.66553 408.782H11.3218C11.3218 412.973 12.4618 416.242 14.7417 418.589C17.0552 420.936 20.3913 422.11 24.75 422.11C28.7399 422.11 31.9587 420.853 34.4062 418.338C36.8874 415.823 38.1447 412.303 38.1782 407.776V355.773ZM96.4678 429C95.9313 427.927 95.4954 426.016 95.1602 423.267C90.835 427.759 85.6715 430.006 79.6699 430.006C74.3053 430.006 69.8963 428.497 66.4429 425.479C63.0229 422.428 61.313 418.573 61.313 413.912C61.313 408.246 63.4588 403.854 67.7505 400.735C72.0757 397.584 78.1444 396.008 85.9565 396.008H95.0093V391.733C95.0093 388.481 94.0369 385.899 92.0923 383.988C90.1476 382.043 87.2809 381.071 83.4922 381.071C80.1729 381.071 77.39 381.909 75.1436 383.585C72.8971 385.262 71.7739 387.29 71.7739 389.671H62.4194C62.4194 386.955 63.375 384.34 65.2861 381.825C67.2308 379.277 69.846 377.265 73.1318 375.79C76.4512 374.315 80.089 373.577 84.0454 373.577C90.3153 373.577 95.2272 375.153 98.7812 378.305C102.335 381.423 104.179 385.731 104.313 391.23V416.276C104.313 421.272 104.951 425.245 106.225 428.195V429H96.4678ZM81.0278 421.909C83.9448 421.909 86.7109 421.154 89.3262 419.646C91.9414 418.137 93.8358 416.175 95.0093 413.761V402.596H87.7168C76.3171 402.596 70.6172 405.932 70.6172 412.604C70.6172 415.521 71.5895 417.801 73.5342 419.444C75.4788 421.087 77.9767 421.909 81.0278 421.909ZM136.048 416.376L149.527 374.583H159.032L139.519 429H132.427L112.712 374.583H122.218L136.048 416.376ZM200.775 429C200.239 427.927 199.803 426.016 199.468 423.267C195.143 427.759 189.979 430.006 183.978 430.006C178.613 430.006 174.204 428.497 170.75 425.479C167.331 422.428 165.621 418.573 165.621 413.912C165.621 408.246 167.766 403.854 172.058 400.735C176.383 397.584 182.452 396.008 190.264 396.008H199.317V391.733C199.317 388.481 198.345 385.899 196.4 383.988C194.455 382.043 191.589 381.071 187.8 381.071C184.48 381.071 181.698 381.909 179.451 383.585C177.205 385.262 176.082 387.29 176.082 389.671H166.727C166.727 386.955 167.683 384.34 169.594 381.825C171.538 379.277 174.154 377.265 177.439 375.79C180.759 374.315 184.397 373.577 188.353 373.577C194.623 373.577 199.535 375.153 203.089 378.305C206.643 381.423 208.487 385.731 208.621 391.23V416.276C208.621 421.272 209.258 425.245 210.532 428.195V429H200.775ZM185.335 421.909C188.252 421.909 191.019 421.154 193.634 419.646C196.249 418.137 198.143 416.175 199.317 413.761V402.596H192.024C180.625 402.596 174.925 405.932 174.925 412.604C174.925 415.521 175.897 417.801 177.842 419.444C179.786 421.087 182.284 421.909 185.335 421.909ZM246.24 396.36C237.959 393.979 231.924 391.062 228.135 387.609C224.38 384.122 222.502 379.83 222.502 374.734C222.502 368.967 224.799 364.206 229.392 360.451C234.019 356.662 240.021 354.768 247.397 354.768C252.426 354.768 256.902 355.74 260.825 357.685C264.782 359.629 267.833 362.312 269.979 365.731C272.158 369.151 273.248 372.89 273.248 376.947H263.541C263.541 372.521 262.133 369.051 259.316 366.536C256.5 363.988 252.527 362.714 247.397 362.714C242.636 362.714 238.914 363.77 236.232 365.882C233.583 367.961 232.259 370.861 232.259 374.583C232.259 377.567 233.516 380.098 236.031 382.177C238.579 384.222 242.887 386.1 248.956 387.81C255.058 389.52 259.819 391.414 263.239 393.493C266.693 395.538 269.241 397.936 270.884 400.685C272.56 403.434 273.398 406.67 273.398 410.392C273.398 416.326 271.085 421.087 266.458 424.675C261.831 428.229 255.645 430.006 247.9 430.006C242.871 430.006 238.177 429.05 233.818 427.139C229.459 425.194 226.09 422.546 223.709 419.193C221.362 415.84 220.188 412.035 220.188 407.776H229.895C229.895 412.202 231.521 415.706 234.773 418.288C238.059 420.836 242.435 422.11 247.9 422.11C252.996 422.11 256.902 421.07 259.618 418.992C262.334 416.913 263.692 414.08 263.692 410.492C263.692 406.905 262.435 404.139 259.92 402.194C257.405 400.216 252.845 398.271 246.24 396.36ZM306.189 422.412C309.509 422.412 312.409 421.406 314.89 419.394C317.371 417.382 318.746 414.868 319.014 411.85H327.815C327.648 414.968 326.575 417.936 324.597 420.752C322.618 423.568 319.97 425.815 316.65 427.491C313.365 429.168 309.878 430.006 306.189 430.006C298.78 430.006 292.879 427.542 288.486 422.613C284.128 417.651 281.948 410.878 281.948 402.294V400.735C281.948 395.438 282.921 390.727 284.865 386.603C286.81 382.479 289.593 379.277 293.214 376.997C296.868 374.717 301.177 373.577 306.139 373.577C312.241 373.577 317.304 375.404 321.328 379.059C325.385 382.714 327.547 387.458 327.815 393.292H319.014C318.746 389.771 317.405 386.888 314.991 384.642C312.61 382.362 309.66 381.222 306.139 381.222C301.412 381.222 297.74 382.932 295.125 386.352C292.543 389.738 291.252 394.65 291.252 401.087V402.848C291.252 409.118 292.543 413.946 295.125 417.332C297.707 420.718 301.395 422.412 306.189 422.412ZM364.58 382.932C363.171 382.697 361.646 382.58 360.003 382.58C353.901 382.58 349.76 385.178 347.581 390.375V429H338.276V374.583H347.329L347.48 380.87C350.531 376.008 354.856 373.577 360.456 373.577C362.266 373.577 363.641 373.812 364.58 374.281V382.932ZM383.289 429H373.984V374.583H383.289V429ZM373.23 360.149C373.23 358.64 373.683 357.366 374.588 356.327C375.527 355.287 376.901 354.768 378.712 354.768C380.522 354.768 381.897 355.287 382.836 356.327C383.775 357.366 384.244 358.64 384.244 360.149C384.244 361.658 383.775 362.915 382.836 363.921C381.897 364.927 380.522 365.43 378.712 365.43C376.901 365.43 375.527 364.927 374.588 363.921C373.683 362.915 373.23 361.658 373.23 360.149ZM444.193 402.395C444.193 410.677 442.299 417.349 438.51 422.412C434.722 427.474 429.592 430.006 423.121 430.006C416.515 430.006 411.319 427.91 407.53 423.719V449.922H398.226V374.583H406.725L407.178 380.618C410.966 375.924 416.23 373.577 422.97 373.577C429.508 373.577 434.671 376.042 438.46 380.97C442.282 385.899 444.193 392.756 444.193 401.54V402.395ZM434.889 401.339C434.889 395.203 433.582 390.358 430.966 386.804C428.351 383.25 424.764 381.473 420.204 381.473C414.571 381.473 410.346 383.971 407.53 388.967V414.968C410.313 419.931 414.571 422.412 420.304 422.412C424.764 422.412 428.301 420.651 430.916 417.131C433.565 413.577 434.889 408.313 434.889 401.339ZM468.686 361.406V374.583H478.845V381.775H468.686V415.521C468.686 417.701 469.139 419.344 470.044 420.45C470.949 421.523 472.492 422.06 474.671 422.06C475.744 422.06 477.219 421.858 479.097 421.456V429C476.649 429.671 474.269 430.006 471.955 430.006C467.798 430.006 464.663 428.749 462.55 426.234C460.438 423.719 459.382 420.148 459.382 415.521V381.775H449.474V374.583H459.382V361.406H468.686ZM47.9351 530.889H17.2563L10.3662 550H0.408203L28.3711 476.773H36.8203L64.8335 550H54.9258L47.9351 530.889ZM20.1733 522.942H45.0684L32.5957 488.693L20.1733 522.942ZM99.5356 503.932C98.1274 503.697 96.6019 503.58 94.959 503.58C88.8568 503.58 84.716 506.178 82.5366 511.375V550H73.2324V495.583H82.2852L82.436 501.87C85.4871 497.008 89.8123 494.577 95.4116 494.577C97.2222 494.577 98.5968 494.812 99.5356 495.281V503.932ZM134.439 503.932C133.031 503.697 131.505 503.58 129.862 503.58C123.76 503.58 119.619 506.178 117.44 511.375V550H108.136V495.583H117.188L117.339 501.87C120.39 497.008 124.716 494.577 130.315 494.577C132.125 494.577 133.5 494.812 134.439 495.281V503.932ZM139.569 522.289C139.569 516.958 140.608 512.163 142.687 507.905C144.799 503.647 147.716 500.361 151.438 498.047C155.193 495.734 159.468 494.577 164.263 494.577C171.673 494.577 177.657 497.142 182.217 502.272C186.811 507.402 189.107 514.225 189.107 522.741V523.395C189.107 528.693 188.085 533.454 186.04 537.678C184.028 541.869 181.128 545.138 177.339 547.485C173.584 549.832 169.258 551.006 164.363 551.006C156.987 551.006 151.002 548.441 146.409 543.311C141.849 538.181 139.569 531.392 139.569 522.942V522.289ZM148.923 523.395C148.923 529.43 150.315 534.275 153.098 537.93C155.914 541.584 159.669 543.412 164.363 543.412C169.091 543.412 172.846 541.568 175.629 537.879C178.412 534.158 179.803 528.961 179.803 522.289C179.803 516.32 178.378 511.492 175.528 507.804C172.712 504.083 168.957 502.222 164.263 502.222C159.669 502.222 155.964 504.049 153.148 507.704C150.332 511.358 148.923 516.589 148.923 523.395ZM248.956 537.175L259.417 495.583H268.721L252.879 550H245.335L232.108 508.76L219.233 550H211.689L195.897 495.583H205.151L215.863 536.32L228.537 495.583H236.031L248.956 537.175ZM345.619 517.662H314.89V550H305.234V476.773H350.598V484.72H314.89V509.766H345.619V517.662ZM393.196 544.619C389.575 548.877 384.261 551.006 377.253 551.006C371.453 551.006 367.027 549.329 363.976 545.977C360.958 542.59 359.433 537.594 359.399 530.989V495.583H368.704V530.738C368.704 538.986 372.056 543.11 378.762 543.11C385.87 543.11 390.598 540.461 392.945 535.164V495.583H402.249V550H393.397L393.196 544.619ZM425.233 495.583L425.535 502.423C429.692 497.192 435.124 494.577 441.83 494.577C453.33 494.577 459.13 501.065 459.231 514.041V550H449.927V513.99C449.893 510.067 448.988 507.167 447.211 505.29C445.467 503.412 442.735 502.473 439.013 502.473C435.996 502.473 433.347 503.278 431.067 504.887C428.787 506.497 427.01 508.609 425.736 511.224V550H416.432V495.583H425.233ZM495.09 543.412C498.409 543.412 501.309 542.406 503.791 540.394C506.272 538.382 507.646 535.868 507.915 532.85H516.716C516.548 535.968 515.475 538.936 513.497 541.752C511.519 544.568 508.87 546.815 505.551 548.491C502.265 550.168 498.778 551.006 495.09 551.006C487.68 551.006 481.779 548.542 477.387 543.613C473.028 538.651 470.849 531.878 470.849 523.294V521.735C470.849 516.438 471.821 511.727 473.766 507.603C475.71 503.479 478.493 500.277 482.114 497.997C485.769 495.717 490.077 494.577 495.04 494.577C501.142 494.577 506.205 496.404 510.228 500.059C514.285 503.714 516.448 508.458 516.716 514.292H507.915C507.646 510.771 506.305 507.888 503.891 505.642C501.511 503.362 498.56 502.222 495.04 502.222C490.312 502.222 486.641 503.932 484.025 507.352C481.444 510.738 480.153 515.65 480.153 522.087V523.848C480.153 530.118 481.444 534.946 484.025 538.332C486.607 541.718 490.295 543.412 495.09 543.412ZM539.8 482.406V495.583H549.959V502.775H539.8V536.521C539.8 538.701 540.253 540.344 541.158 541.45C542.063 542.523 543.606 543.06 545.785 543.06C546.858 543.06 548.333 542.858 550.211 542.456V550C547.763 550.671 545.383 551.006 543.069 551.006C538.912 551.006 535.777 549.749 533.665 547.234C531.552 544.719 530.496 541.148 530.496 536.521V502.775H520.588V495.583H530.496V482.406H539.8ZM570.982 550H561.678V495.583H570.982V550ZM560.923 481.149C560.923 479.64 561.376 478.366 562.281 477.327C563.22 476.287 564.595 475.768 566.405 475.768C568.216 475.768 569.59 476.287 570.529 477.327C571.468 478.366 571.938 479.64 571.938 481.149C571.938 482.658 571.468 483.915 570.529 484.921C569.59 485.927 568.216 486.43 566.405 486.43C564.595 486.43 563.22 485.927 562.281 484.921C561.376 483.915 560.923 482.658 560.923 481.149ZM583.455 522.289C583.455 516.958 584.494 512.163 586.573 507.905C588.685 503.647 591.602 500.361 595.324 498.047C599.079 495.734 603.354 494.577 608.148 494.577C615.558 494.577 621.543 497.142 626.103 502.272C630.696 507.402 632.993 514.225 632.993 522.741V523.395C632.993 528.693 631.971 533.454 629.925 537.678C627.914 541.869 625.013 545.138 621.225 547.485C617.469 549.832 613.144 551.006 608.249 551.006C600.873 551.006 594.888 548.441 590.294 543.311C585.735 538.181 583.455 531.392 583.455 522.942V522.289ZM592.809 523.395C592.809 529.43 594.201 534.275 596.983 537.93C599.8 541.584 603.555 543.412 608.249 543.412C612.977 543.412 616.732 541.568 619.515 537.879C622.298 534.158 623.689 528.961 623.689 522.289C623.689 516.32 622.264 511.492 619.414 507.804C616.598 504.083 612.842 502.222 608.148 502.222C603.555 502.222 599.85 504.049 597.034 507.704C594.217 511.358 592.809 516.589 592.809 523.395ZM653.462 495.583L653.764 502.423C657.922 497.192 663.353 494.577 670.059 494.577C681.559 494.577 687.36 501.065 687.46 514.041V550H678.156V513.99C678.123 510.067 677.217 507.167 675.44 505.29C673.697 503.412 670.964 502.473 667.243 502.473C664.225 502.473 661.576 503.278 659.296 504.887C657.016 506.497 655.239 508.609 653.965 511.224V550H644.661V495.583H653.462Z" fill="#1B3409"/>
</g>
<defs>
<clipPath id="clip0">
<rect width="1440" height="1024" fill="white"/>
</clipPath>
</defs>
</svg>
